<?xml version="1.0" standalone="no"?>
<!DOCTYPE svg PUBLIC "-//W3C//DTD SVG 20010904//EN"
 "http://www.w3.org/TR/2001/REC-SVG-20010904/DTD/svg10.dtd">
<svg version="1.0" xmlns="http://www.w3.org/2000/svg"
 width="975.000000pt" height="975.000000pt" viewBox="0 0 975.000000 975.000000"
 preserveAspectRatio="xMidYMid meet">
<metadata>
Created by potrace 1.11, written by Peter Selinger 2001-2013
</metadata>
<g transform="translate(0.000000,975.000000) scale(0.100000,-0.100000)"
fill="#000000" stroke="none">
<path d="M4793 8533 c-57 -2 -103 -8 -103 -13 0 -6 -31 -10 -70 -10 -40 0 -70
-4 -70 -10 0 -5 -20 -10 -44 -10 -24 0 -60 -7 -80 -15 -20 -8 -36 -12 -36 -8
0 4 -5 2 -12 -5 -7 -7 -25 -12 -40 -12 -15 0 -28 -4 -28 -10 0 -5 -15 -10 -34
-10 -19 0 -38 -4 -41 -10 -3 -5 -19 -10 -36 -10 -16 0 -29 -4 -29 -10 0 -5
-13 -10 -30 -10 -16 0 -30 -4 -30 -10 0 -5 -9 -10 -20 -10 -11 0 -20 -4 -20
-10 0 -5 -9 -10 -20 -10 -11 0 -20 -4 -20 -10 0 -5 -18 -10 -40 -10 -22 0 -40
-4 -40 -10 0 -5 -9 -10 -20 -10 -11 0 -20 -4 -20 -10 0 -5 -6 -10 -13 -10 -7
0 -23 -9 -35 -20 -12 -11 -28 -20 -37 -20 -8 0 -15 -4 -15 -10 0 -5 -13 -10
-28 -10 -16 0 -34 -8 -42 -20 -8 -11 -21 -20 -29 -20 -7 0 -21 -8 -30 -18 -9
-9 -28 -23 -43 -31 -16 -8 -28 -18 -28 -23 0 -4 -6 -8 -14 -8 -8 0 -46 -31
-85 -70 -39 -38 -78 -70 -86 -70 -8 0 -15 -7 -15 -16 0 -8 -18 -33 -40 -54
-22 -21 -40 -45 -40 -52 0 -7 -9 -20 -20 -28 -11 -8 -20 -22 -20 -32 0 -9 -4
-20 -10 -23 -5 -3 -10 -17 -10 -31 0 -13 -4 -24 -10 -24 -5 0 -10 -7 -10 -15
0 -20 -45 -65 -65 -65 -8 0 -15 -4 -15 -10 0 -5 -7 -10 -16 -10 -8 0 -42 -27
-74 -60 -32 -33 -65 -60 -73 -60 -7 0 -20 -12 -28 -27 -8 -16 -22 -35 -31 -44
-10 -9 -18 -22 -18 -29 0 -6 -13 -25 -30 -40 -16 -15 -30 -35 -30 -44 0 -9 -4
-16 -10 -16 -5 0 -10 -13 -10 -30 0 -23 -4 -30 -20 -30 -15 0 -20 -7 -20 -28
0 -16 -8 -34 -20 -42 -11 -8 -20 -22 -20 -32 0 -10 -4 -18 -10 -18 -5 0 -10
-9 -10 -20 0 -11 -4 -20 -10 -20 -5 0 -10 -10 -10 -23 0 -26 -21 -77 -32 -77
-5 0 -8 -9 -8 -19 0 -11 -4 -23 -10 -26 -5 -3 -10 -20 -10 -36 0 -16 -9 -39
-20 -51 -11 -12 -20 -32 -20 -45 0 -13 -4 -23 -10 -23 -5 0 -10 -18 -10 -40 0
-22 -4 -40 -10 -40 -5 0 -10 -18 -10 -40 0 -22 -4 -40 -10 -40 -5 0 -10 -13
-10 -29 0 -17 -4 -33 -10 -36 -5 -3 -10 -26 -10 -51 0 -24 -4 -44 -10 -44 -5
0 -10 -18 -10 -40 0 -22 -4 -40 -10 -40 -6 0 -10 -30 -10 -69 0 -41 -4 -71
-11 -73 -7 -2 -12 -84 -14 -251 -2 -135 -6 -251 -9 -256 -7 -10 -102 -9 -113
2 -11 11 -77 7 -94 -6 -9 -7 -19 -26 -22 -42 -3 -17 -11 -49 -16 -72 -26 -103
-32 -130 -38 -170 -4 -29 -2 -43 6 -43 6 0 11 -9 11 -20 0 -11 5 -20 10 -20 6
0 10 -9 10 -20 0 -11 5 -20 10 -20 6 0 10 -9 10 -20 0 -11 5 -20 10 -20 6 0
10 -9 10 -20 0 -11 5 -20 11 -20 13 0 6 -157 -12 -265 -6 -38 -13 -155 -16
-260 -5 -209 7 -318 39 -346 11 -10 18 -30 18 -53 0 -20 5 -36 10 -36 6 0 10
-8 10 -18 0 -10 9 -24 20 -32 14 -10 20 -26 20 -52 0 -21 -4 -38 -10 -38 -6 0
-10 -40 -10 -100 0 -65 -4 -100 -11 -100 -13 0 -11 -606 2 -632 5 -9 11 -35
13 -58 2 -22 6 -43 10 -47 3 -3 6 -28 6 -55 0 -26 5 -48 10 -48 6 0 10 -27 10
-60 0 -33 4 -60 10 -60 6 0 10 -19 10 -42 0 -38 32 -148 50 -173 4 -5 13 -31
21 -57 7 -27 17 -48 21 -48 4 0 8 -13 8 -29 0 -15 9 -40 20 -54 11 -14 20 -29
20 -34 0 -5 8 -18 18 -29 10 -11 22 -32 25 -46 4 -15 14 -33 22 -42 8 -8 15
-19 15 -24 0 -5 9 -17 20 -27 11 -10 20 -24 20 -30 0 -7 18 -31 40 -54 22 -22
40 -47 40 -54 0 -7 9 -19 20 -27 11 -8 20 -19 20 -25 0 -5 18 -29 39 -52 22
-23 47 -53 56 -67 10 -14 22 -26 27 -26 11 0 38 -25 38 -36 0 -11 52 -64 62
-64 5 0 21 -11 36 -25 15 -14 34 -32 43 -40 9 -8 19 -15 22 -15 4 0 21 -13 39
-30 17 -16 36 -30 42 -30 6 0 18 -9 26 -20 8 -11 19 -20 26 -20 20 0 69 -29
94 -55 13 -14 34 -25 47 -25 13 0 23 -4 23 -10 0 -5 6 -10 13 -10 8 0 41 -13
75 -30 34 -16 67 -30 72 -30 6 0 18 -4 28 -9 29 -15 87 -31 110 -31 12 0 22
-4 22 -10 0 -5 7 -10 15 -10 9 0 30 -8 48 -17 18 -9 52 -20 77 -24 25 -4 76
-14 115 -23 38 -9 82 -16 97 -16 15 0 29 -4 32 -9 3 -5 25 -12 48 -15 24 -4
75 -11 113 -17 95 -15 755 -23 755 -9 0 5 15 10 33 10 17 0 66 9 107 20 41 11
85 20 98 20 12 0 22 5 22 10 0 6 23 10 50 10 28 0 50 5 50 10 0 6 11 10 25 10
14 0 42 9 62 20 21 11 50 20 65 20 16 0 28 5 28 10 0 6 11 10 24 10 14 0 28 5
31 10 3 6 19 10 36 10 16 0 29 5 29 10 0 6 5 10 12 10 22 0 253 121 285 149 7
6 19 11 28 11 8 0 15 4 15 8 0 4 14 16 30 26 17 9 41 28 55 42 13 13 29 24 35
24 12 0 380 366 380 378 0 5 22 33 50 63 27 30 49 60 50 67 0 6 5 12 10 12 6
0 10 7 10 16 0 8 18 33 40 54 22 21 40 45 40 52 0 7 9 20 20 28 11 8 20 21 20
30 0 9 9 22 20 30 11 8 20 22 20 32 0 10 5 18 10 18 6 0 10 8 10 18 0 10 9 24
20 32 11 8 20 22 20 32 0 10 5 18 10 18 6 0 10 8 10 18 0 10 9 24 20 32 11 8
20 22 20 32 0 11 7 18 20 18 11 0 20 -4 20 -10 0 -5 14 -10 30 -10 17 0 30 5
30 10 0 6 -7 10 -16 10 -22 0 -53 32 -36 38 7 2 12 21 12 43 0 21 5 39 10 39
6 0 10 8 10 18 0 10 9 24 20 32 12 8 20 26 20 42 0 15 5 28 10 28 6 0 10 14
10 30 0 17 5 30 10 30 6 0 10 14 10 30 0 17 5 30 10 30 6 0 10 9 10 20 0 11 5
20 10 20 6 0 10 14 10 30 0 17 5 30 10 30 6 0 10 9 10 20 0 11 5 20 10 20 6 0
10 8 10 18 0 10 9 24 20 32 11 8 20 22 20 32 0 10 5 18 10 18 6 0 10 9 10 20
0 11 5 20 10 20 6 0 10 9 10 20 0 11 5 20 10 20 6 0 10 7 10 16 0 9 14 29 30
44 18 17 30 38 30 54 0 14 5 26 10 26 6 0 10 7 10 15 0 8 34 49 75 90 53 54
82 75 100 75 14 0 25 5 25 10 0 6 13 10 28 10 16 0 34 8 42 20 8 12 26 20 42
20 15 0 28 5 28 10 0 6 9 10 20 10 22 0 27 15 8 23 -10 4 -10 8 1 15 11 8 9
15 -12 36 -26 26 -57 35 -57 16 0 -5 -13 -10 -30 -10 -16 0 -30 -4 -30 -10 0
-5 -9 -10 -20 -10 -11 0 -20 -4 -20 -10 0 -5 -8 -10 -18 -10 -10 0 -24 -9 -32
-20 -8 -11 -20 -20 -27 -20 -16 0 -123 -105 -123 -120 0 -11 -65 -80 -75 -80
-3 0 -5 23 -5 50 0 28 5 50 10 50 6 0 10 18 10 40 0 22 5 40 10 40 6 0 10 18
10 40 0 22 5 40 10 40 6 0 10 18 10 40 0 22 5 40 10 40 6 0 10 14 10 30 0 17
5 30 10 30 6 0 10 9 10 20 0 13 7 20 20 20 11 0 20 5 20 10 0 6 11 10 25 10
34 0 95 61 95 95 0 14 5 25 10 25 6 0 10 8 10 18 0 10 9 24 20 32 11 8 20 20
20 28 0 7 9 22 20 34 11 12 20 32 20 45 0 13 5 23 10 23 6 0 10 8 10 18 0 10
9 24 20 32 11 8 20 22 20 32 0 10 4 18 8 18 5 0 20 21 33 48 13 26 27 49 32
50 4 2 7 12 7 23 0 10 5 19 10 19 6 0 10 9 10 20 0 11 5 20 10 20 6 0 10 14
10 30 0 17 5 30 10 30 6 0 10 9 10 20 0 11 5 20 10 20 6 0 10 7 10 15 0 9 9
33 20 55 11 22 20 51 20 65 0 14 5 25 10 25 6 0 10 18 10 39 0 22 4 41 8 43
22 9 61 170 69 286 2 39 8 72 13 72 13 0 21 149 21 400 1 242 -10 385 -45 595
-11 59 -50 185 -58 185 -5 0 -8 18 -8 40 0 22 -4 40 -10 40 -5 0 -10 13 -10
29 0 15 -9 40 -20 54 -11 14 -20 32 -20 41 0 9 -4 16 -8 16 -5 0 -15 23 -22
50 -7 28 -17 50 -22 50 -4 0 -8 9 -8 20 0 11 -4 20 -10 20 -5 0 -10 6 -10 13
0 7 -9 23 -20 35 -11 12 -20 28 -20 37 0 8 -4 15 -10 15 -5 0 -10 7 -10 16 0
9 -14 29 -30 44 -17 15 -30 38 -30 50 0 12 -13 35 -30 50 -16 15 -30 32 -30
38 0 5 -13 23 -30 40 -16 18 -30 37 -30 43 0 5 -22 32 -50 59 -27 27 -50 54
-50 60 0 17 -26 40 -44 40 -9 0 -16 7 -16 15 0 17 -144 165 -160 165 -5 0 -29
18 -51 40 -23 22 -48 40 -55 40 -8 0 -14 7 -14 16 0 20 -24 44 -44 44 -9 0
-16 5 -16 10 0 6 -8 10 -18 10 -10 0 -24 9 -32 20 -8 11 -21 20 -28 20 -8 0
-27 14 -42 30 -15 17 -35 30 -43 30 -8 0 -25 13 -38 30 -16 20 -33 30 -51 30
-16 0 -28 5 -28 10 0 6 -8 10 -18 10 -10 0 -24 9 -32 20 -8 11 -21 20 -30 20
-9 0 -22 9 -30 20 -8 11 -22 20 -32 20 -9 0 -20 5 -23 10 -3 6 -15 10 -26 10
-11 0 -29 9 -41 20 -12 11 -28 20 -35 20 -7 0 -13 5 -13 10 0 6 -9 10 -20 10
-28 0 -100 23 -100 32 0 5 -9 8 -19 8 -11 0 -23 5 -26 10 -3 6 -17 10 -31 10
-13 0 -24 5 -24 10 0 6 -9 10 -20 10 -11 0 -20 5 -20 10 0 6 -13 10 -30 10
-16 0 -30 5 -30 10 0 6 -18 10 -40 10 -22 0 -40 5 -40 10 0 6 -9 10 -20 10
-11 0 -20 5 -20 10 0 6 -9 10 -19 10 -11 0 -23 5 -26 10 -3 6 -22 10 -41 10
-19 0 -34 5 -34 10 0 6 -18 10 -40 10 -22 0 -40 4 -40 9 0 8 -15 12 -118 27
-23 4 -45 11 -48 15 -3 5 -16 9 -29 9 -13 0 -27 5 -30 10 -3 6 -35 10 -71 10
-36 0 -64 4 -64 10 0 6 -40 10 -99 10 -55 0 -101 4 -103 9 -3 11 -320 20 -475
14z m-1423 -1583 c0 -11 5 -20 10 -20 6 0 10 -13 10 -30 0 -16 5 -30 10 -30 6
0 10 -9 10 -20 0 -11 5 -20 10 -20 6 0 10 -9 10 -20 0 -11 5 -20 10 -20 6 0
10 -8 10 -18 0 -10 9 -24 20 -32 11 -8 20 -22 20 -32 0 -10 5 -18 10 -18 6 0
10 -7 10 -16 0 -8 18 -33 40 -54 22 -21 40 -43 40 -49 0 -15 126 -141 140
-141 6 0 33 -22 60 -50 27 -27 54 -50 60 -50 7 0 25 -13 40 -30 15 -16 34 -30
42 -30 7 0 20 -9 28 -20 8 -11 22 -20 32 -20 10 0 18 -4 18 -10 0 -5 9 -10 20
-10 11 0 20 -4 20 -10 0 -5 9 -10 20 -10 11 0 20 -4 20 -10 0 -5 9 -10 20 -10
11 0 20 -4 20 -10 0 -5 9 -10 20 -10 11 0 20 -4 20 -10 0 -5 9 -10 20 -10 11
0 20 -4 20 -10 0 -5 9 -10 20 -10 11 0 20 -4 20 -10 0 -5 9 -10 20 -10 11 0
20 -4 20 -10 0 -5 14 -10 30 -10 17 0 30 -4 30 -10 0 -5 18 -10 40 -10 22 0
40 -4 40 -10 0 -5 13 -10 28 -10 16 0 34 -8 42 -20 10 -14 26 -20 52 -20 21 0
38 -4 38 -10 0 -5 18 -10 40 -10 22 0 40 -4 40 -10 0 -5 14 -10 30 -10 17 0
30 -4 30 -10 0 -5 14 -10 30 -10 17 0 30 -4 30 -10 0 -5 18 -10 40 -10 22 0
40 -4 40 -10 0 -6 27 -10 60 -10 33 0 60 -4 60 -10 0 -5 18 -10 40 -10 22 0
40 -4 40 -10 0 -5 18 -10 40 -10 22 0 40 -4 40 -10 0 -5 23 -10 50 -10 28 0
50 -4 50 -10 0 -6 30 -10 70 -10 40 0 70 -4 70 -10 0 -6 37 -10 90 -10 53 0
90 -4 90 -10 0 -6 27 -10 60 -10 33 0 60 -4 60 -10 0 -5 23 -10 50 -10 28 0
50 5 50 10 0 6 9 10 20 10 11 0 20 -4 20 -10 0 -5 23 -10 50 -10 28 0 50 -4
50 -10 0 -6 107 -10 300 -10 193 0 300 -4 300 -10 0 -6 73 -10 200 -10 127 0
200 -4 200 -10 0 -6 50 -10 130 -10 80 0 130 -4 130 -10 0 -5 7 -10 16 -10 8
0 22 -6 30 -14 16 -17 19 -46 4 -46 -6 0 -10 -53 -10 -140 0 -87 -4 -140 -10
-140 -6 0 -10 -47 -10 -120 0 -73 -4 -120 -10 -120 -6 0 -10 -63 -10 -169 0
-126 -3 -171 -12 -174 -10 -4 -9 -8 2 -16 12 -8 11 -13 -9 -31 -14 -11 -21
-23 -17 -27 4 -4 11 -1 16 7 5 8 12 11 17 7 4 -5 1 -12 -7 -18 -13 -8 -13 -10
0 -18 8 -6 11 -13 8 -17 -4 -4 -21 8 -38 26 -17 18 -34 29 -38 25 -4 -4 -1
-10 6 -12 19 -7 14 -23 -8 -23 -11 0 -20 5 -20 10 0 6 -18 10 -40 10 -22 0
-40 5 -40 10 0 6 -13 10 -30 10 -16 0 -30 5 -30 10 0 6 -9 10 -20 10 -11 0
-20 5 -20 10 0 6 -9 10 -20 10 -11 0 -20 5 -20 10 0 6 -13 10 -28 10 -16 0
-34 8 -42 20 -10 14 -26 20 -50 20 -24 0 -40 6 -50 20 -8 11 -21 20 -28 20 -8
0 -27 14 -42 30 -15 17 -33 30 -40 30 -7 0 -25 14 -40 30 -15 17 -35 30 -44
30 -9 0 -16 5 -16 10 0 6 -9 10 -20 10 -11 0 -20 5 -20 10 0 6 -9 10 -20 10
-11 0 -20 5 -20 10 0 6 -9 10 -20 10 -11 0 -20 5 -20 10 0 6 -9 10 -20 10 -11
0 -20 5 -20 10 0 6 -9 10 -20 10 -11 0 -20 5 -20 10 0 6 -9 10 -20 10 -11 0
-20 5 -20 10 0 6 -13 10 -28 10 -16 0 -34 8 -42 20 -8 12 -26 20 -42 20 -15 0
-28 5 -28 10 0 6 -18 10 -40 10 -22 0 -40 5 -40 10 0 6 -22 10 -50 10 -27 0
-50 5 -50 10 0 6 -30 10 -70 10 -40 0 -70 4 -70 10 0 6 -53 10 -140 10 -87 0
-140 -4 -140 -10 0 -6 -33 -10 -80 -10 -47 0 -80 -4 -80 -10 0 -5 -12 -10 -26
-10 -38 0 -54 -22 -54 -74 l0 -46 -190 0 c-120 0 -190 -4 -190 -10 0 -5 -9
-10 -20 -10 -11 0 -20 5 -20 10 0 6 -22 10 -50 10 -27 0 -50 5 -50 10 0 6 -27
10 -60 10 -33 0 -60 4 -60 10 0 6 -13 10 -30 10 -16 0 -30 5 -30 10 0 6 -13
10 -30 10 -16 0 -30 5 -30 10 0 6 -13 10 -30 10 -16 0 -30 5 -30 10 0 6 -13
10 -30 10 -16 0 -30 5 -30 10 0 6 -9 10 -20 10 -11 0 -20 5 -20 10 0 6 -13 10
-30 10 -23 0 -30 4 -30 20 0 12 -7 20 -16 20 -22 0 -44 25 -44 50 0 23 -61 90
-82 90 -8 0 -20 9 -28 20 -8 11 -22 20 -32 20 -10 0 -18 5 -18 10 0 6 -9 10
-20 10 -11 0 -20 5 -20 10 0 6 -8 10 -18 10 -10 0 -24 9 -32 20 -8 11 -22 20
-32 20 -10 0 -18 5 -18 10 0 6 -9 10 -20 10 -11 0 -20 5 -20 10 0 6 -13 10
-30 10 -16 0 -30 5 -30 10 0 6 -18 10 -40 10 -22 0 -40 5 -40 10 0 6 -13 10
-30 10 -16 0 -30 5 -30 10 0 6 -13 10 -30 10 -16 0 -30 5 -30 10 0 6 -40 10
-100 10 -60 0 -100 4 -100 10 0 6 -50 10 -130 10 -80 0 -130 4 -130 10 0 6 -9
10 -20 10 -11 0 -20 5 -20 10 0 6 -27 10 -60 10 -33 0 -60 4 -60 10 0 6 -18
10 -40 10 -22 0 -40 5 -40 10 0 6 -27 10 -60 10 -60 0 -60 0 -60 29 0 16 -6
32 -12 35 -10 5 -10 7 0 12 6 3 12 14 12 24 0 10 6 21 13 23 9 4 8 8 -3 17
-11 9 -12 13 -2 17 6 2 12 13 12 23 0 10 6 21 13 23 9 4 8 8 -3 17 -11 9 -12
13 -2 17 7 2 12 22 12 44 0 21 5 39 10 39 6 0 10 14 10 30 0 17 5 30 10 30 6
0 10 9 10 20 0 11 5 20 10 20 6 0 10 14 10 30 0 17 5 30 10 30 6 0 10 14 10
30 0 17 5 30 10 30 6 0 10 14 10 30 0 17 5 30 10 30 6 0 10 8 10 18 0 10 9 24
20 32 12 8 20 26 20 42 0 15 5 28 10 28 6 0 10 14 10 30 0 17 5 30 10 30 6 0
10 9 10 20 0 11 5 20 10 20 6 0 10 9 10 20 0 11 5 20 10 20 6 0 10 9 10 20 0
11 5 20 10 20 6 0 10 9 10 20 0 11 5 20 10 20 6 0 10 9 10 20 0 11 5 20 10 20
6 0 10 8 10 18 0 10 9 24 20 32 11 8 20 21 20 30 0 9 9 22 20 30 11 8 20 21
20 28 0 8 14 27 30 42 17 15 30 33 30 40 0 16 26 40 44 40 9 0 16 5 16 10 0 6
5 10 10 10 6 0 10 -9 10 -20z m-360 -1510 c0 -6 26 -10 58 -10 46 0 60 -4 72
-20 10 -14 26 -20 52 -20 21 0 38 -4 38 -10 0 -5 23 -10 50 -10 28 0 50 -4 50
-10 0 -5 18 -10 40 -10 22 0 40 -4 40 -10 0 -5 9 -10 20 -10 11 0 20 -4 20
-10 0 -5 14 -10 30 -10 17 0 30 -4 30 -10 0 -5 18 -10 40 -10 22 0 40 -4 40
-10 0 -5 12 -10 26 -10 27 0 61 -26 49 -38 -4 -4 -10 -1 -12 6 -3 7 -24 12
-54 12 -27 0 -49 5 -49 10 0 6 -22 10 -50 10 -27 0 -50 5 -50 10 0 6 -67 10
-180 10 -113 0 -180 -4 -180 -10 0 -6 -27 -10 -60 -10 -33 0 -60 -4 -60 -10 0
-5 -13 -10 -30 -10 -16 0 -30 -4 -30 -10 0 -5 -8 -10 -18 -10 -10 0 -24 -9
-32 -20 -8 -11 -20 -20 -27 -20 -19 0 -143 -126 -143 -145 0 -8 -4 -15 -10
-15 -5 0 -10 -7 -10 -16 0 -9 -13 -29 -30 -44 -18 -17 -30 -38 -30 -54 0 -14
-4 -26 -10 -26 -5 0 -10 -9 -10 -20 0 -11 -4 -20 -10 -20 -5 0 -10 9 -10 20 0
11 5 20 10 20 6 0 10 23 10 50 0 28 5 50 10 50 6 0 10 18 10 39 0 22 5 42 13
44 9 4 8 8 -3 17 -11 9 -12 13 -2 17 6 2 12 13 12 24 0 10 5 19 10 19 6 0 10
23 10 50 0 28 5 50 10 50 6 0 10 37 10 90 0 83 1 90 20 90 11 0 20 5 20 10 0
6 57 10 150 10 93 0 150 -4 150 -10z m-414 -164 c16 -16 19 -86 4 -86 -6 0
-10 -27 -10 -60 0 -33 -4 -60 -10 -60 -5 0 -10 -18 -10 -40 0 -33 -3 -40 -20
-40 -17 0 -20 -7 -20 -50 0 -27 -4 -50 -10 -50 -5 0 -10 -18 -10 -40 0 -22 -4
-40 -10 -40 -6 0 -10 33 -10 80 0 47 4 80 10 80 6 0 10 27 10 60 0 33 4 60 10
60 6 0 10 14 10 30 0 17 5 30 10 30 6 0 10 18 10 40 0 22 5 40 10 40 6 0 10
14 10 30 0 34 5 37 26 16z m1354 -176 c0 -5 -4 -10 -10 -10 -5 0 -10 5 -10 10
0 6 5 10 10 10 6 0 10 -4 10 -10z m-640 -20 c0 -5 -7 -10 -15 -10 -9 0 -27
-11 -40 -25 -14 -13 -25 -31 -25 -40 0 -8 -4 -15 -10 -15 -5 0 -10 -8 -10 -18
0 -10 -9 -24 -20 -32 -11 -8 -20 -22 -20 -32 0 -10 -4 -18 -10 -18 -5 0 -10
-18 -10 -40 0 -22 -4 -40 -10 -40 -6 0 -10 -27 -10 -60 0 -33 4 -60 10 -60 6
0 10 -18 10 -40 0 -22 5 -40 10 -40 6 0 10 -9 10 -20 0 -11 5 -20 10 -20 6 0
10 -7 10 -15 0 -14 82 -105 95 -105 3 0 5 13 5 29 0 16 6 32 13 35 10 5 10 7
0 12 -19 8 -16 24 5 24 10 0 24 -9 32 -20 8 -11 22 -20 32 -20 10 0 18 -4 18
-10 0 -5 18 -10 40 -10 22 0 40 -4 40 -10 0 -5 18 -10 40 -10 22 0 40 5 40 10
0 6 14 10 30 10 17 0 30 5 30 10 0 6 9 10 20 10 11 0 20 5 20 10 0 6 9 10 20
10 11 0 20 5 20 10 0 6 7 10 16 10 20 0 44 24 44 44 0 11 9 16 30 16 17 0 30
-4 30 -10 0 -15 29 -12 46 4 8 8 14 31 14 50 0 20 5 36 10 36 6 0 10 27 10 60
l0 60 30 0 c23 0 30 -4 30 -20 0 -13 7 -20 20 -20 15 0 20 -7 20 -26 0 -27 26
-61 38 -49 4 4 1 10 -5 12 -7 3 -13 18 -13 34 0 16 -4 29 -10 29 -5 0 -10 14
-10 30 0 17 5 30 10 30 6 0 10 -4 10 -10 0 -18 55 -11 70 10 18 25 30 26 30 1
0 -11 6 -22 13 -25 10 -5 10 -7 0 -12 -7 -3 -13 -19 -13 -35 0 -16 -4 -29 -10
-29 -5 0 -10 -9 -10 -20 0 -11 -4 -20 -10 -20 -5 0 -10 -13 -10 -30 0 -16 -4
-30 -10 -30 -5 0 -10 -18 -10 -40 0 -22 -4 -40 -10 -40 -5 0 -10 -9 -10 -20 0
-11 -4 -20 -10 -20 -5 0 -10 -13 -10 -30 0 -21 -5 -30 -16 -30 -23 0 -44 -25
-44 -54 0 -14 -4 -26 -10 -26 -5 0 -10 -7 -10 -16 0 -9 -13 -29 -30 -44 -16
-15 -30 -34 -30 -42 0 -7 -9 -20 -20 -28 -11 -8 -20 -21 -20 -28 0 -8 -13 -27
-30 -42 -16 -15 -30 -33 -30 -40 0 -16 -25 -40 -42 -40 -8 0 -20 -9 -28 -20
-8 -11 -22 -20 -32 -20 -11 0 -18 -7 -18 -20 0 -13 -7 -20 -20 -20 -11 0 -20
-4 -20 -10 0 -5 -9 -10 -20 -10 -11 0 -20 -4 -20 -10 0 -5 -13 -10 -30 -10
-16 0 -30 -4 -30 -10 0 -5 -9 -10 -20 -10 -11 0 -20 -4 -20 -10 0 -6 -50 -10
-130 -10 -80 0 -130 4 -130 10 0 6 -9 10 -20 10 -11 0 -20 5 -20 10 0 6 -18
10 -40 10 -22 0 -40 5 -40 10 0 6 -18 10 -40 10 -22 0 -40 5 -40 10 0 6 -13
10 -28 10 -16 0 -34 8 -42 20 -8 12 -26 20 -42 20 -15 0 -28 5 -28 10 0 6 -9
10 -20 10 -11 0 -20 5 -20 10 0 6 -12 10 -26 10 -16 0 -37 12 -54 30 -15 17
-34 30 -42 30 -7 0 -20 9 -28 20 -8 11 -22 20 -32 20 -10 0 -18 7 -18 16 0 9
-13 29 -30 44 -16 15 -30 35 -30 44 0 9 -4 16 -10 16 -5 0 -10 8 -10 18 0 10
-9 24 -20 32 -11 8 -20 22 -20 32 0 10 -4 18 -10 18 -6 0 -10 30 -10 70 0 40
4 70 10 70 6 0 10 18 10 40 0 38 2 40 30 40 17 0 30 -4 30 -10 0 -15 29 -12
46 4 8 8 14 22 14 30 0 9 5 16 10 16 6 0 10 9 10 20 0 11 5 20 10 20 6 0 10
14 10 30 0 17 5 30 10 30 6 0 10 13 10 28 0 16 8 34 20 42 11 8 20 22 20 32 0
10 5 18 10 18 6 0 10 7 10 15 0 26 107 125 135 125 18 0 25 -5 25 -20 0 -11
-4 -20 -10 -20 -5 0 -10 -13 -10 -30 0 -16 -4 -30 -10 -30 -5 0 -10 -22 -10
-50 0 -53 16 -66 46 -36 8 8 14 22 14 30 0 9 5 16 10 16 6 0 10 9 10 20 0 11
5 20 10 20 6 0 10 7 10 16 0 19 24 44 42 44 8 0 20 9 28 20 8 11 22 20 32 20
10 0 18 5 18 10 0 6 9 10 20 10 11 0 20 5 20 10 0 6 9 10 20 10 11 0 20 5 20
10 0 6 30 10 70 10 40 0 70 -4 70 -10z m2304 -42 c5 -10 7 -10 12 0 7 15 164
17 164 2 0 -6 30 -10 70 -10 40 0 70 -4 70 -10 0 -5 18 -10 40 -10 22 0 40 -4
40 -10 0 -5 18 -10 40 -10 22 0 40 -4 40 -10 0 -5 -9 -10 -19 -10 -11 0 -21
-6 -24 -12 -3 -9 -12 -5 -26 12 -19 21 -24 22 -32 10 -8 -11 -12 -12 -16 -2
-6 15 -103 17 -103 2 0 -5 -4 -10 -10 -10 -5 0 -10 9 -10 20 0 18 -7 20 -69
20 -46 0 -71 4 -75 13 -5 10 -7 10 -12 0 -6 -13 -124 -19 -124 -8 0 8 24 34
32 35 3 0 9 -6 12 -12z m-2149 -53 c54 -53 18 -155 -55 -155 -39 0 -100 58
-100 95 0 14 5 25 10 25 6 0 10 9 10 20 0 13 7 20 20 20 11 0 20 5 20 10 0 21
70 10 95 -15z m2109 -187 c5 -10 7 -10 12 0 7 14 64 17 64 2 0 -5 14 -10 30
-10 17 0 30 -4 30 -10 0 -6 30 -10 70 -10 40 0 70 -4 70 -10 0 -6 30 -10 70
-10 40 0 70 -4 70 -10 0 -6 27 -10 60 -10 33 0 60 -4 60 -10 0 -5 22 -10 48
-10 36 0 51 -5 62 -20 10 -14 26 -20 52 -20 21 0 38 -4 38 -10 0 -5 23 -10 50
-10 28 0 50 -4 50 -10 0 -5 18 -10 40 -10 22 0 40 -4 40 -10 0 -5 8 -10 18
-10 10 0 24 -9 32 -20 8 -11 22 -20 32 -20 10 0 18 -4 18 -10 0 -5 7 -10 16
-10 18 0 44 -24 44 -40 0 -7 14 -25 30 -40 28 -26 30 -33 30 -103 0 -51 -4
-77 -12 -80 -10 -4 -9 -8 2 -17 11 -9 12 -13 3 -17 -8 -2 -13 -22 -13 -44 0
-21 -4 -39 -10 -39 -5 0 -10 -22 -10 -50 0 -27 -4 -50 -10 -50 -6 0 -10 -27
-10 -60 0 -33 -4 -60 -10 -60 -5 0 -10 -13 -10 -30 0 -16 -4 -30 -10 -30 -5 0
-10 -13 -10 -30 0 -16 -4 -30 -10 -30 -5 0 -10 -13 -10 -30 0 -16 -4 -30 -10
-30 -5 0 -10 -13 -10 -30 0 -16 -4 -30 -10 -30 -5 0 -10 -9 -10 -20 0 -11 -4
-20 -10 -20 -5 0 -10 -9 -10 -20 0 -11 -4 -20 -10 -20 -5 0 -10 -8 -10 -18 0
-10 -9 -24 -20 -32 -11 -8 -20 -20 -20 -27 0 -19 -146 -163 -165 -163 -8 0
-15 -4 -15 -10 0 -5 -13 -10 -30 -10 -16 0 -30 -4 -30 -10 0 -5 -16 -10 -36
-10 -25 0 -43 -7 -57 -22 -13 -16 -21 -19 -24 -10 -4 9 -56 12 -214 12 -133 0
-209 4 -209 10 0 15 -117 13 -123 -2 -2 -8 -8 -9 -13 -4 -5 5 -4 11 4 13 29
11 8 23 -38 23 -27 0 -50 5 -50 10 0 6 -13 10 -28 10 -16 0 -34 8 -42 20 -8
11 -22 20 -32 20 -10 0 -18 5 -18 10 0 6 -12 10 -26 10 -16 0 -37 12 -54 30
-15 17 -33 30 -40 30 -16 0 -40 26 -40 44 0 9 -8 16 -20 16 -13 0 -20 7 -20
18 0 10 -9 24 -20 32 -11 8 -20 22 -20 32 0 10 -4 18 -10 18 -5 0 -10 14 -10
30 0 17 -4 30 -10 30 -5 0 -10 8 -10 18 0 10 -9 24 -20 32 -14 10 -20 26 -20
52 0 21 -4 38 -10 38 -5 0 -10 23 -10 50 0 28 -4 50 -10 50 -5 0 -10 23 -10
50 0 28 -4 50 -10 50 -6 0 -10 70 -10 190 l0 190 40 0 c22 0 40 5 40 10 0 6
14 10 30 10 17 0 30 5 30 10 0 6 9 10 19 10 11 0 22 6 25 13 5 10 7 10 12 0 3
-7 19 -13 35 -13 16 0 29 -2 29 -5 0 -13 -50 -55 -65 -55 -8 0 -15 -9 -15 -20
0 -11 -4 -20 -10 -20 -5 0 -10 -9 -10 -20 0 -11 -4 -20 -10 -20 -5 0 -10 -22
-10 -50 0 -27 5 -50 10 -50 6 0 10 7 10 16 0 9 14 29 30 44 17 15 30 33 30 39
0 16 66 81 82 81 8 0 20 9 28 20 8 12 26 20 42 20 15 0 28 5 28 10 0 6 5 10
10 10 20 0 9 -33 -20 -60 -16 -15 -30 -35 -30 -44 0 -9 -4 -16 -10 -16 -5 0
-10 -13 -10 -30 0 -16 -4 -30 -10 -30 -5 0 -10 -22 -10 -50 0 -27 -4 -50 -10
-50 -5 0 -10 -13 -10 -30 0 -16 5 -30 10 -30 6 0 10 -18 10 -40 0 -22 5 -40
10 -40 6 0 10 -11 10 -25 0 -14 11 -37 25 -50 29 -30 35 -31 35 -5 0 11 5 20
10 20 6 0 10 14 10 30 0 17 3 30 6 30 3 0 19 -13 34 -30 15 -16 34 -30 42 -30
7 0 20 -9 28 -20 8 -11 22 -20 32 -20 10 0 18 -4 18 -10 0 -5 14 -10 30 -10
17 0 30 -4 30 -10 0 -6 27 -10 60 -10 33 0 60 4 60 10 0 6 18 10 40 10 22 0
40 5 40 10 0 6 8 10 18 10 10 0 24 9 32 20 8 11 20 20 28 20 16 0 42 24 42 40
0 15 25 40 40 40 17 0 40 -26 40 -44 0 -9 8 -16 20 -16 16 0 20 7 20 38 0 26
6 42 20 52 17 12 20 26 20 82 0 39 -4 68 -10 68 -5 0 -10 9 -10 20 0 11 -4 20
-10 20 -5 0 -10 14 -10 30 0 17 -4 30 -10 30 -5 0 -10 8 -10 18 0 10 -9 24
-20 32 -11 8 -20 22 -20 32 0 10 -4 18 -10 18 -5 0 -10 5 -10 10 0 6 9 10 20
10 11 0 20 -4 20 -10 0 -5 9 -10 20 -10 11 0 20 -4 20 -10 0 -5 8 -10 18 -10
10 0 24 -9 32 -20 8 -11 21 -20 30 -20 9 0 22 -9 30 -20 8 -11 20 -20 28 -20
18 0 42 -25 42 -44 0 -9 7 -16 16 -16 18 0 44 -24 44 -40 0 -7 14 -25 30 -40
17 -15 30 -35 30 -44 0 -9 5 -16 10 -16 6 0 10 -12 10 -26 0 -23 20 -54 34
-54 3 0 6 27 6 60 0 33 -4 60 -10 60 -15 0 -12 29 4 46 17 16 66 19 66 4 0
-15 70 -12 86 4 16 16 19 86 4 86 -5 0 -10 14 -10 30 0 21 -5 30 -16 30 -8 0
-33 18 -54 40 -21 22 -45 40 -52 40 -7 0 -20 9 -28 20 -8 12 -26 20 -42 20
-15 0 -28 5 -28 10 0 6 -8 10 -18 10 -10 0 -24 9 -32 20 -8 12 -26 20 -42 20
-15 0 -28 5 -28 10 0 6 -9 10 -20 10 -11 0 -20 5 -20 10 0 6 -13 10 -30 10
-16 0 -30 5 -30 10 0 6 -13 10 -30 10 -16 0 -30 5 -30 10 0 6 -9 10 -20 10
-11 0 -20 5 -20 10 0 6 -18 10 -40 10 -22 0 -40 5 -40 10 0 6 -18 10 -40 10
-22 0 -40 5 -40 10 0 6 -27 10 -60 10 -33 0 -60 4 -60 10 0 6 -27 10 -60 10
-33 0 -60 4 -60 10 0 6 -27 10 -60 10 -33 0 -60 4 -60 10 0 6 -30 10 -70 10
-40 0 -70 4 -70 10 0 16 217 13 224 -2z m-3084 -38 c0 -16 -4 -30 -10 -30 -5
0 -10 14 -10 30 0 17 5 30 10 30 6 0 10 -13 10 -30z m2100 -220 c0 -5 9 -10
20 -10 11 0 20 -4 20 -10 0 -5 9 -10 20 -10 13 0 20 -7 20 -18 0 -10 9 -24 20
-32 15 -11 20 -26 20 -62 0 -26 5 -48 10 -48 6 0 10 -30 10 -70 0 -40 4 -70
10 -70 6 0 10 -30 10 -70 0 -40 4 -70 10 -70 6 0 10 -30 10 -70 0 -40 4 -70
10 -70 6 0 10 -22 10 -50 0 -27 5 -50 10 -50 6 0 10 -13 10 -30 0 -16 5 -30
10 -30 6 0 10 -13 10 -30 0 -16 5 -30 10 -30 6 0 10 -18 10 -40 0 -22 5 -40
10 -40 6 0 10 -9 10 -20 0 -11 5 -20 10 -20 6 0 10 -8 10 -18 0 -10 9 -24 20
-32 11 -8 20 -22 20 -32 0 -10 5 -18 10 -18 6 0 10 -9 10 -20 0 -11 5 -20 10
-20 6 0 10 -7 10 -16 0 -9 14 -29 30 -44 17 -15 30 -33 30 -39 0 -15 66 -81
81 -81 6 0 24 -13 39 -30 15 -16 35 -30 44 -30 9 0 16 -4 16 -10 0 -5 9 -10
20 -10 11 0 20 -4 20 -10 0 -5 9 -10 20 -10 11 0 20 -4 20 -10 0 -5 9 -10 20
-10 11 0 20 -4 20 -10 0 -5 14 -10 30 -10 17 0 30 -4 30 -10 0 -5 14 -10 30
-10 17 0 30 -4 30 -10 0 -5 9 -10 20 -10 11 0 20 -4 20 -10 0 -5 14 -10 30
-10 17 0 30 -4 30 -10 0 -5 14 -10 30 -10 17 0 30 -4 30 -10 0 -5 9 -10 20
-10 11 0 20 -4 20 -10 0 -5 18 -10 40 -10 22 0 40 -4 40 -10 0 -5 18 -10 40
-10 22 0 40 -4 40 -10 0 -5 14 -10 30 -10 17 0 30 -4 30 -10 0 -5 9 -10 20
-10 11 0 20 -4 20 -10 0 -6 27 -10 60 -10 33 0 60 -4 60 -10 0 -6 27 -10 60
-10 33 0 60 -4 60 -10 0 -6 40 -10 100 -10 60 0 100 4 100 10 0 6 14 10 30 10
17 0 30 5 30 10 0 6 11 10 25 10 29 0 115 79 115 105 0 8 5 15 10 15 6 0 10 9
10 20 0 11 5 20 10 20 6 0 10 7 10 16 0 9 10 25 22 36 19 16 20 21 8 29 -11 8
-12 12 -2 16 6 2 12 18 12 34 0 16 5 29 10 29 6 0 10 9 10 20 0 11 5 20 10 20
6 0 10 9 10 20 0 11 5 20 10 20 6 0 10 14 10 30 0 17 5 30 10 30 6 0 10 11 10
25 0 29 40 75 65 75 18 0 20 16 3 23 -7 2 -9 8 -5 13 4 5 13 2 18 -6 8 -11 12
-12 16 -2 14 34 23 3 23 -78 0 -83 -1 -90 -20 -90 -11 0 -20 -4 -20 -10 0 -5
-9 -10 -20 -10 -11 0 -20 -4 -20 -8 0 -4 9 -14 20 -22 11 -8 20 -18 20 -22 0
-4 -9 -8 -20 -8 -13 0 -20 -7 -20 -20 0 -11 -4 -20 -10 -20 -5 0 -10 -8 -10
-18 0 -10 -9 -24 -20 -32 -11 -8 -20 -25 -20 -38 0 -15 -23 -46 -70 -92 -38
-38 -70 -74 -70 -80 0 -14 -126 -140 -141 -140 -6 0 -28 -18 -49 -40 -21 -22
-45 -40 -52 -40 -7 0 -20 -9 -28 -20 -8 -11 -21 -20 -28 -20 -8 0 -27 -13 -42
-30 -17 -18 -38 -30 -54 -30 -14 0 -26 -4 -26 -10 0 -5 -9 -10 -20 -10 -11 0
-20 -4 -20 -10 0 -5 -8 -10 -18 -10 -10 0 -24 -9 -32 -20 -10 -14 -26 -20 -52
-20 -21 0 -38 -4 -38 -10 0 -5 -13 -10 -30 -10 -16 0 -30 -4 -30 -10 0 -5 -18
-10 -40 -10 -22 0 -40 -4 -40 -10 0 -6 -53 -10 -140 -10 -87 0 -140 4 -140 10
0 6 -13 10 -30 10 -16 0 -30 5 -30 10 0 6 -9 10 -20 10 -11 0 -20 5 -20 10 0
6 -13 10 -30 10 -20 0 -30 5 -30 15 0 20 -45 65 -65 65 -8 0 -15 7 -15 15 0
18 -44 65 -60 65 -15 0 -40 25 -40 40 0 19 -48 60 -71 60 -11 0 -34 14 -49 30
-15 17 -34 30 -42 30 -7 0 -20 9 -28 20 -8 11 -25 20 -38 20 -14 0 -36 13 -52
30 -17 18 -38 30 -54 30 -14 0 -26 5 -26 10 0 6 -9 10 -20 10 -11 0 -20 5 -20
10 0 6 -18 10 -40 10 -22 0 -40 5 -40 10 0 6 -9 10 -20 10 -11 0 -20 5 -20 10
0 6 -13 10 -30 10 -16 0 -30 5 -30 10 0 6 -18 10 -40 10 -22 0 -40 5 -40 10 0
6 -13 10 -30 10 -16 0 -30 5 -30 10 0 6 14 10 30 10 17 0 30 5 30 10 0 6 7 10
15 10 20 0 105 85 105 105 0 8 5 15 10 15 6 0 10 14 10 30 0 17 5 30 10 30 6
0 10 27 10 60 0 33 -2 60 -5 60 -10 0 -75 -69 -75 -80 0 -16 -108 -120 -125
-120 -8 0 -15 -4 -15 -10 0 -5 -18 -10 -40 -10 -22 0 -40 -4 -40 -10 0 -5 -22
-10 -50 -10 -27 0 -50 5 -50 10 0 6 -18 10 -40 10 -22 0 -40 5 -40 10 0 6 -13
10 -30 10 -16 0 -30 5 -30 10 0 6 -13 10 -30 10 -16 0 -30 5 -30 10 0 6 -7 10
-16 10 -9 0 -29 14 -44 30 -15 17 -33 30 -40 30 -16 0 -40 26 -40 44 0 9 -4
16 -10 16 -5 0 -10 14 -10 30 0 17 -4 30 -10 30 -6 0 -10 27 -10 60 0 63 -3
69 -26 46 -17 -17 -20 -166 -4 -166 6 0 10 -9 10 -20 0 -11 5 -20 10 -20 6 0
10 -9 10 -20 0 -11 5 -20 10 -20 6 0 10 -7 10 -16 0 -9 14 -29 30 -44 17 -15
30 -31 30 -34 0 -3 -13 -6 -30 -6 -16 0 -30 5 -30 10 0 6 -27 10 -60 10 -33 0
-60 4 -60 10 0 6 -9 10 -20 10 -11 0 -20 -4 -20 -10 0 -6 -47 -10 -120 -10
-73 0 -120 -4 -120 -10 0 -5 -13 -10 -30 -10 -16 0 -30 -4 -30 -10 0 -5 -18
-10 -40 -10 -22 0 -40 -4 -40 -10 0 -5 -18 -10 -40 -10 -22 0 -40 -4 -40 -10
0 -5 -13 -10 -30 -10 -16 0 -30 -4 -30 -10 0 -5 -9 -10 -20 -10 -11 0 -20 -4
-20 -10 0 -5 -13 -10 -30 -10 -16 0 -30 -4 -30 -10 0 -6 -33 -10 -78 -10 -66
0 -80 3 -92 20 -8 11 -22 20 -32 20 -10 0 -18 5 -18 10 0 6 -9 10 -20 10 -11
0 -20 5 -20 10 0 6 -9 10 -20 10 -11 0 -20 5 -20 10 0 6 -7 10 -15 10 -9 0
-36 20 -60 45 -25 24 -45 51 -45 60 0 8 -7 15 -16 15 -19 0 -44 24 -44 42 0 8
-9 20 -20 28 -11 8 -20 21 -20 30 0 9 -9 22 -20 30 -12 8 -20 26 -20 42 0 15
-4 28 -10 28 -5 0 -10 9 -10 20 0 11 -4 20 -10 20 -5 0 -10 17 -10 38 0 26 -6
42 -20 52 -15 11 -20 26 -20 62 0 26 -4 48 -10 48 -5 0 -10 18 -10 40 0 22 3
40 6 40 3 0 23 -18 44 -40 25 -26 47 -40 64 -40 14 0 26 -4 26 -10 0 -5 14
-10 30 -10 17 0 30 -4 30 -10 0 -5 18 -10 40 -10 22 0 40 -4 40 -10 0 -6 27
-10 60 -10 33 0 60 -4 60 -10 0 -6 27 -10 60 -10 33 0 60 -4 60 -10 0 -6 33
-10 80 -10 47 0 80 -4 80 -10 0 -6 67 -10 180 -10 113 0 180 4 180 10 0 6 14
10 30 10 17 0 30 5 30 10 0 6 14 10 30 10 17 0 30 5 30 10 0 6 9 10 20 10 11
0 20 5 20 10 0 6 9 10 20 10 11 0 20 5 20 10 0 6 9 10 20 10 11 0 20 5 20 10
0 6 7 10 15 10 9 0 51 36 95 80 44 44 86 80 95 80 8 0 15 7 15 16 0 8 18 33
40 54 22 21 40 46 40 54 0 9 8 16 20 16 13 0 20 7 20 18 0 10 9 24 20 32 11 8
20 21 20 30 0 9 9 22 20 30 11 8 20 22 20 32 0 10 5 18 10 18 6 0 10 8 10 18
0 10 9 24 20 32 11 8 20 21 20 30 0 9 9 22 20 30 11 8 20 22 20 32 0 10 5 18
10 18 6 0 10 7 10 16 0 8 18 33 40 54 22 21 40 46 40 54 0 9 8 16 20 16 11 0
20 5 20 10 0 6 33 10 80 10 47 0 80 -4 80 -10z m1040 -110 c0 -11 5 -20 10
-20 6 0 10 -18 10 -40 0 -22 -4 -40 -10 -40 -5 0 -10 -9 -10 -20 0 -15 -7 -20
-29 -20 -16 0 -32 -6 -35 -12 -5 -10 -7 -10 -12 0 -3 6 -17 12 -31 12 -38 0
-53 22 -53 80 0 70 11 79 93 80 60 0 67 -2 67 -20z m1380 -326 c0 -3 -7 -12
-15 -21 -20 -19 -32 -10 -14 11 14 15 29 21 29 10z m-40 -124 c0 -5 -4 -10
-10 -10 -5 0 -10 5 -10 10 0 6 5 10 10 10 6 0 10 -4 10 -10z m-40 -20 c0 -5
-4 -10 -10 -10 -5 0 -10 5 -10 10 0 6 5 10 10 10 6 0 10 -4 10 -10z m20 -40
c0 -5 -4 -10 -10 -10 -5 0 -10 5 -10 10 0 6 5 10 10 10 6 0 10 -4 10 -10z
m-940 -640 c0 -6 -27 -10 -60 -10 -33 0 -60 4 -60 10 0 6 27 10 60 10 33 0 60
-4 60 -10z m300 -160 c0 -5 -9 -10 -20 -10 -11 0 -20 -4 -20 -10 0 -6 -27 -10
-60 -10 -33 0 -60 4 -60 10 0 6 27 10 60 10 33 0 60 4 60 10 0 6 9 10 20 10
11 0 20 -4 20 -10z m-180 -16 c0 -3 -7 -12 -15 -21 -20 -19 -32 -10 -14 11 14
15 29 21 29 10z m-2120 -184 c0 -6 30 -10 70 -10 40 0 70 -4 70 -10 0 -5 9
-10 20 -10 11 0 20 -4 20 -10 0 -6 27 -10 60 -10 33 0 60 -4 60 -10 0 -5 18
-10 40 -10 22 0 40 -4 40 -10 0 -5 23 -10 50 -10 28 0 50 -4 50 -10 0 -5 9
-10 20 -10 11 0 20 -4 20 -10 0 -5 9 -10 20 -10 11 0 20 -4 20 -10 0 -5 9 -10
20 -10 11 0 20 -4 20 -10 0 -5 18 -10 40 -10 22 0 40 -4 40 -10 0 -5 9 -10 20
-10 11 0 20 -4 20 -10 0 -5 9 -10 20 -10 11 0 20 -4 20 -10 0 -5 8 -10 18 -10
10 0 24 -9 32 -20 8 -12 26 -20 42 -20 15 0 28 -4 28 -10 0 -5 -18 -10 -40
-10 -22 0 -40 5 -40 10 0 6 -18 10 -40 10 -22 0 -40 5 -40 10 0 6 -27 10 -60
10 -33 0 -60 4 -60 10 0 6 -30 10 -70 10 -40 0 -70 4 -70 10 0 6 -22 10 -50
10 -27 0 -50 5 -50 10 0 6 -22 10 -50 10 -27 0 -50 5 -50 10 0 6 -18 10 -40
10 -22 0 -40 5 -40 10 0 6 -22 10 -50 10 -27 0 -50 5 -50 10 0 6 -22 10 -50
10 -27 0 -50 5 -50 10 0 6 -22 10 -50 10 -27 0 -50 5 -50 10 0 6 -13 10 -29
10 -16 0 -32 6 -34 13 -4 9 -8 8 -17 -3 -9 -11 -13 -12 -17 -2 -2 7 -22 12
-44 12 -21 0 -39 5 -39 10 0 6 -37 10 -90 10 -53 0 -90 -4 -90 -10 0 -5 14
-10 30 -10 17 0 30 -4 30 -10 0 -5 18 -10 40 -10 22 0 40 -4 40 -10 0 -5 14
-10 30 -10 17 0 30 -4 30 -10 0 -5 9 -10 20 -10 11 0 20 -4 20 -10 0 -5 18
-10 40 -10 22 0 40 -4 40 -10 0 -5 18 -10 40 -10 22 0 40 -4 40 -10 0 -5 18
-10 40 -10 22 0 40 -4 40 -10 0 -5 14 -10 30 -10 17 0 30 -4 30 -10 0 -5 23
-10 50 -10 28 0 50 -4 50 -10 0 -6 27 -10 60 -10 33 0 60 -4 60 -10 0 -6 27
-10 60 -10 33 0 60 -4 60 -10 0 -6 30 -10 70 -10 40 0 70 -4 70 -10 0 -6 33
-10 80 -10 47 0 80 -4 80 -10 0 -6 40 -10 100 -10 60 0 100 -4 100 -10 0 -5 5
-10 10 -10 6 0 10 9 10 20 0 11 4 20 8 20 4 0 14 -9 22 -20 8 -11 22 -20 32
-20 13 0 18 -8 18 -30 0 -16 5 -30 10 -30 6 0 10 -27 10 -60 0 -33 -4 -60 -10
-60 -5 0 -10 -13 -10 -28 0 -16 -8 -34 -20 -42 -11 -8 -20 -22 -20 -32 0 -10
-4 -18 -10 -18 -5 0 -10 -11 -10 -25 0 -29 -79 -115 -105 -115 -8 0 -15 -4
-15 -10 0 -5 -9 -10 -20 -10 -11 0 -20 -4 -20 -10 0 -5 -18 -10 -40 -10 -22 0
-40 -4 -40 -10 0 -6 -33 -10 -80 -10 -47 0 -80 4 -80 10 0 6 -16 10 -35 10
-30 0 -45 9 -90 55 -38 37 -55 63 -55 80 0 14 -4 25 -10 25 -5 0 -10 9 -10 20
0 13 -7 20 -18 20 -10 0 -24 9 -32 20 -8 11 -22 20 -32 20 -10 0 -18 5 -18 10
0 6 -9 10 -20 10 -11 0 -20 5 -20 10 0 6 -13 10 -30 10 -16 0 -30 5 -30 10 0
6 -50 10 -130 10 -80 0 -130 -4 -130 -10 0 -5 -13 -10 -30 -10 -23 0 -30 -4
-30 -20 0 -13 -7 -20 -20 -20 -11 0 -20 -4 -20 -10 0 -5 -9 -10 -20 -10 -11 0
-20 -4 -20 -10 0 -6 -43 -10 -108 -10 -96 0 -109 2 -122 20 -8 11 -21 20 -28
20 -8 0 -27 14 -42 30 -15 17 -35 30 -44 30 -11 0 -16 9 -16 28 0 16 -8 34
-20 42 -11 8 -20 22 -20 32 0 10 -4 18 -10 18 -6 0 -10 33 -10 80 0 47 4 80
10 80 6 0 10 14 10 30 0 17 5 30 10 30 6 0 10 14 10 30 0 17 5 30 10 30 6 0
10 12 10 26 0 29 21 54 44 54 9 0 16 8 16 20 0 16 7 20 30 20 17 0 30 5 30 10
0 6 90 10 250 10 160 0 250 -4 250 -10z"/>
<path d="M3910 3630 c0 -11 5 -20 10 -20 6 0 10 9 10 20 0 11 -4 20 -10 20 -5
0 -10 -9 -10 -20z"/>
<path d="M7730 4000 c0 -5 5 -10 10 -10 6 0 10 5 10 10 0 6 -4 10 -10 10 -5 0
-10 -4 -10 -10z"/>
<path d="M7270 2920 c0 -5 5 -10 10 -10 6 0 10 5 10 10 0 6 -4 10 -10 10 -5 0
-10 -4 -10 -10z"/>
<path d="M7170 2840 c0 -5 -13 -10 -30 -10 -16 0 -30 -4 -30 -10 0 -15 49 -12
66 4 16 17 18 26 4 26 -5 0 -10 -4 -10 -10z"/>
<path d="M7050 2800 c0 -5 5 -10 10 -10 6 0 10 5 10 10 0 6 -4 10 -10 10 -5 0
-10 -4 -10 -10z"/>
</g>
</svg>
